<svg viewBox="0 0 44 45" fill="none" xmlns="http://www.w3.org/2000/svg">
<mask id="mask0_518_1529" style="mask-type:luminance" maskUnits="userSpaceOnUse" x="0" y="0" width="44" height="45">
<path d="M42.9004 18.6016H22.4004V27.1016H34.2004C33.1004 32.5016 28.5004 35.6016 22.4004 35.6016C15.2004 35.6016 9.40039 29.8016 9.40039 22.6016C9.40039 15.4016 15.2004 9.60156 22.4004 9.60156C25.5004 9.60156 28.3004 10.7016 30.5004 12.5016L36.9004 6.10156C33.0004 2.70156 28.0004 0.601562 22.4004 0.601562C10.2004 0.601562 0.400391 10.4016 0.400391 22.6016C0.400391 34.8016 10.2004 44.6016 22.4004 44.6016C33.4004 44.6016 43.4004 36.6016 43.4004 22.6016C43.4004 21.3016 43.2004 19.9016 42.9004 18.6016Z" fill="white"/>
</mask>
<g mask="url(#mask0_518_1529)">
<path d="M-1.59961 35.6016V9.60156L15.4004 22.6016L-1.59961 35.6016Z" fill="#FBBC05"/>
</g>
<mask id="mask1_518_1529" style="mask-type:luminance" maskUnits="userSpaceOnUse" x="0" y="0" width="44" height="45">
<path d="M42.9004 18.6016H22.4004V27.1016H34.2004C33.1004 32.5016 28.5004 35.6016 22.4004 35.6016C15.2004 35.6016 9.40039 29.8016 9.40039 22.6016C9.40039 15.4016 15.2004 9.60156 22.4004 9.60156C25.5004 9.60156 28.3004 10.7016 30.5004 12.5016L36.9004 6.10156C33.0004 2.70156 28.0004 0.601562 22.4004 0.601562C10.2004 0.601562 0.400391 10.4016 0.400391 22.6016C0.400391 34.8016 10.2004 44.6016 22.4004 44.6016C33.4004 44.6016 43.4004 36.6016 43.4004 22.6016C43.4004 21.3016 43.2004 19.9016 42.9004 18.6016Z" fill="white"/>
</mask>
<g mask="url(#mask1_518_1529)">
<path d="M-1.59961 9.60156L15.4004 22.6016L22.4004 16.5016L46.4004 12.6016V-1.39844H-1.59961V9.60156Z" fill="#EA4335"/>
</g>
<mask id="mask2_518_1529" style="mask-type:luminance" maskUnits="userSpaceOnUse" x="0" y="0" width="44" height="45">
<path d="M42.9004 18.6016H22.4004V27.1016H34.2004C33.1004 32.5016 28.5004 35.6016 22.4004 35.6016C15.2004 35.6016 9.40039 29.8016 9.40039 22.6016C9.40039 15.4016 15.2004 9.60156 22.4004 9.60156C25.5004 9.60156 28.3004 10.7016 30.5004 12.5016L36.9004 6.10156C33.0004 2.70156 28.0004 0.601562 22.4004 0.601562C10.2004 0.601562 0.400391 10.4016 0.400391 22.6016C0.400391 34.8016 10.2004 44.6016 22.4004 44.6016C33.4004 44.6016 43.4004 36.6016 43.4004 22.6016C43.4004 21.3016 43.2004 19.9016 42.9004 18.6016Z" fill="white"/>
</mask>
<g mask="url(#mask2_518_1529)">
<path d="M-1.59961 35.6016L28.4004 12.6016L36.3004 13.6016L46.4004 -1.39844V46.6016H-1.59961V35.6016Z" fill="#34A853"/>
</g>
<mask id="mask3_518_1529" style="mask-type:luminance" maskUnits="userSpaceOnUse" x="0" y="0" width="44" height="45">
<path d="M42.9004 18.6016H22.4004V27.1016H34.2004C33.1004 32.5016 28.5004 35.6016 22.4004 35.6016C15.2004 35.6016 9.40039 29.8016 9.40039 22.6016C9.40039 15.4016 15.2004 9.60156 22.4004 9.60156C25.5004 9.60156 28.3004 10.7016 30.5004 12.5016L36.9004 6.10156C33.0004 2.70156 28.0004 0.601562 22.4004 0.601562C10.2004 0.601562 0.400391 10.4016 0.400391 22.6016C0.400391 34.8016 10.2004 44.6016 22.4004 44.6016C33.4004 44.6016 43.4004 36.6016 43.4004 22.6016C43.4004 21.3016 43.2004 19.9016 42.9004 18.6016Z" fill="white"/>
</mask>
<g mask="url(#mask3_518_1529)">
<path d="M46.4004 46.6016L15.4004 22.6016L11.4004 19.6016L46.4004 9.60156V46.6016Z" fill="#4285F4"/>
</g>
</svg>