<svg
  viewBox="0 0 1711 353"
  fill="none"
  xmlns="http://www.w3.org/2000/svg"
>
  <path
    d="M0 106.972C0 96.4432 5.51957 86.6849 14.5434 81.2603L133.987 9.45685C143.643 3.65241 155.736 3.74685 165.3 9.70141L178.822 18.1204V124.147L119.115 160.238V90.003L60.0074 124.147V300.11L14.5378 272.763C5.51716 267.337 0 257.581 0 247.054L0 106.972Z"
    fill="currentColor"></path>
  <path
    d="M297 246.007C297 256.536 291.48 266.294 282.457 271.719L162.947 343.562C153.326 349.345 141.281 349.274 131.729 343.376L118.178 335.008L118.178 228.832L177.885 192.741L177.885 262.976L236.993 228.832L236.993 52.8691L282.462 80.2165C291.483 85.6419 297 95.3983 297 105.925L297 246.007Z"
    fill="currentColor"></path>
  <path
    d="M1072.8 267.75C1069.14 267.75 1066.3 266.75 1064.3 264.75C1062.3 262.583 1061.3 259.583 1061.3 255.75V100C1061.3 96 1062.3 93 1064.3 91C1066.3 89 1069.14 88 1072.8 88C1076.64 88 1079.55 89 1081.55 91C1083.55 93 1084.55 96 1084.55 100V255.75C1084.55 259.583 1083.55 262.583 1081.55 264.75C1079.72 266.75 1076.8 267.75 1072.8 267.75ZM1246.98 268.25C1235.32 268.25 1224.98 266.75 1215.98 263.75C1207.15 260.583 1199.73 256 1193.73 250C1187.73 243.833 1183.15 236.25 1179.98 227.25C1176.98 218.083 1175.48 207.5 1175.48 195.5V99.75C1175.48 95.75 1176.48 92.8333 1178.48 91C1180.48 89 1183.32 88 1186.98 88C1190.82 88 1193.73 89 1195.73 91C1197.73 92.8333 1198.73 95.75 1198.73 99.75V194.75C1198.73 212.583 1202.82 225.917 1210.98 234.75C1219.15 243.417 1231.15 247.75 1246.98 247.75C1262.82 247.75 1274.82 243.417 1282.98 234.75C1291.15 225.917 1295.23 212.583 1295.23 194.75V99.75C1295.23 95.75 1296.23 92.8333 1298.23 91C1300.23 89 1303.07 88 1306.73 88C1310.4 88 1313.23 89 1315.23 91C1317.23 92.8333 1318.23 95.75 1318.23 99.75V195.5C1318.23 211.333 1315.48 224.667 1309.98 235.5C1304.65 246.333 1296.65 254.5 1285.98 260C1275.48 265.5 1262.48 268.25 1246.98 268.25ZM1420.6 267.75C1417.26 267.75 1414.68 266.75 1412.85 264.75C1411.01 262.75 1410.1 260.083 1410.1 256.75V99C1410.1 95.5 1411.01 92.8333 1412.85 91C1414.85 89 1417.51 88 1420.85 88C1423.85 88 1426.18 88.5833 1427.85 89.75C1429.68 90.9167 1431.35 92.9167 1432.85 95.75L1499.85 221.5H1492.1L1559.1 95.75C1560.6 92.9167 1562.18 90.9167 1563.85 89.75C1565.51 88.5833 1567.85 88 1570.85 88C1574.18 88 1576.76 89 1578.6 91C1580.43 92.8333 1581.35 95.5 1581.35 99V256.75C1581.35 260.083 1580.43 262.75 1578.6 264.75C1576.93 266.75 1574.35 267.75 1570.85 267.75C1567.35 267.75 1564.68 266.75 1562.85 264.75C1561.18 262.75 1560.35 260.083 1560.35 256.75V122H1565.85L1505.85 234.25C1504.51 236.417 1503.1 238.083 1501.6 239.25C1500.26 240.25 1498.35 240.75 1495.85 240.75C1493.51 240.75 1491.51 240.167 1489.85 239C1488.35 237.833 1487.01 236.25 1485.85 234.25L1425.1 121.75H1431.1V256.75C1431.1 260.083 1430.18 262.75 1428.35 264.75C1426.68 266.75 1424.1 267.75 1420.6 267.75Z"
    fill="currentColor"></path>
  <path
    d="M439.549 266.75C435.882 266.75 433.049 265.75 431.049 263.75C429.049 261.583 428.049 258.583 428.049 254.75V99C428.049 95 429.049 92 431.049 90C433.049 88 435.882 87 439.549 87C443.382 87 446.299 88 448.299 90C450.299 92 451.299 95 451.299 99V165.75H553.299V99C553.299 95 554.299 92 556.299 90C558.299 88 561.215 87 565.049 87C568.716 87 571.549 88 573.549 90C575.549 92 576.549 95 576.549 99V254.75C576.549 258.583 575.549 261.583 573.549 263.75C571.549 265.75 568.716 266.75 565.049 266.75C561.215 266.75 558.299 265.75 556.299 263.75C554.299 261.583 553.299 258.583 553.299 254.75V185.5H451.299V254.75C451.299 258.583 450.299 261.583 448.299 263.75C446.465 265.75 443.549 266.75 439.549 266.75ZM681.467 265C677.467 265 674.383 263.917 672.217 261.75C670.05 259.583 668.967 256.5 668.967 252.5V101.25C668.967 97.25 670.05 94.1667 672.217 92C674.383 89.8333 677.467 88.75 681.467 88.75H773.467C776.633 88.75 779.05 89.5833 780.717 91.25C782.55 92.75 783.467 95 783.467 98C783.467 101.167 782.55 103.583 780.717 105.25C779.05 106.917 776.633 107.75 773.467 107.75H691.467V166H768.217C771.383 166 773.8 166.833 775.467 168.5C777.133 170.167 777.967 172.5 777.967 175.5C777.967 178.667 777.133 181.083 775.467 182.75C773.8 184.25 771.383 185 768.217 185H691.467V246H773.467C776.633 246 779.05 246.833 780.717 248.5C782.55 250 783.467 252.333 783.467 255.5C783.467 258.667 782.55 261.083 780.717 262.75C779.05 264.25 776.633 265 773.467 265H681.467Z"
    fill="currentColor"></path>
  <path
    fill-rule="evenodd"
    clip-rule="evenodd"
    d="M864.021 266.75C861.021 266.75 858.521 266 856.521 264.5C854.521 262.833 853.354 260.75 853.021 258.25C852.854 255.75 853.687 253.25 855.521 250.75L903.177 187.009L916.27 204.689L876.521 259.25C874.521 261.917 872.521 263.833 870.521 265C868.521 266.167 866.354 266.75 864.021 266.75ZM925.155 192.493L925.156 192.491L974.021 259.25C976.021 261.917 978.021 263.833 980.021 265C982.021 266.167 984.104 266.75 986.271 266.75C989.437 266.75 992.021 266 994.021 264.5C996.021 262.833 997.104 260.75 997.271 258.25C997.437 255.75 996.604 253.25 994.771 250.75L938.369 174.997L938.37 174.995L938.147 174.698L935.021 170.554L925.383 157.777L925.54 157.553L925.378 157.777L879.021 94.5C877.187 91.6667 875.271 89.75 873.271 88.75C871.437 87.5833 869.271 87 866.771 87C863.937 87 861.521 87.8333 859.521 89.5C857.687 91 856.604 93 856.271 95.5C856.104 98 857.021 100.667 859.021 103.5L912.166 174.987L912.159 174.997L925.155 192.493ZM947.206 163.109L934.143 145.691L971.271 94.5C973.104 91.6667 974.937 89.75 976.771 88.75C978.771 87.5833 981.104 87 983.771 87C986.771 87 989.187 87.8333 991.021 89.5C993.021 91 994.104 93 994.271 95.5C994.604 98 993.687 100.667 991.521 103.5L947.206 163.109Z"
    fill="currentColor"></path>
</svg>
