<svg xmlns="http://www.w3.org/2000/svg" viewBox="-0.5 -0.5 200 200" fill="currentColor">
<path d="M99.5 44.535189453125c-25.928067578125003 0 -42.133197265625 28.067939453125 -29.169124609374997 50.52236875 12.964072656249998 22.454351562499998 45.374176562500004 22.454351562499998 58.33824921874999 0 2.956160546875 -5.120285546875 4.51248046875 -10.928442578125 4.51248046875 -16.84084140625 0 -18.601214062500002 -15.080391015624999 -33.68075 -33.681605078124996 -33.68152734375Zm0 56.726893359375005c-17.740305859375 0.00077734375 -28.82779296875 -19.2031890625 -19.95830078125 -34.56707734375 8.869414453125 -15.363966015625001 31.04477734375 -15.364898828124998 39.915591015625 -0.001787890625 2.0229593749999997 3.503566015625 3.087998046875 7.4778914062499995 3.087998046875 11.523499218749999 0 12.727216015624998 -10.31815 23.044744140625 -23.04528828125 23.045366015625ZM99.5 1.99c-42.078627734375004 0.0488171875 -76.17789960937499 34.148166796874996 -76.22671679687501 76.22671679687501 0 27.397325 12.710347656249999 56.496488671875 36.757243359374996 84.150803515625 10.853506640625001 12.54306328125 23.068841796875002 23.839733593749997 36.4204203125 33.681605078124996 1.8308 1.281140234375 4.26730625 1.281140234375 6.09810625 0 13.35165625 -9.841871484375 25.566913671874996 -21.138541796875 36.4204203125 -33.681605078124996 24.046895703125 -27.65431484375 36.75732109375 -56.726893359375005 36.75732109375 -84.150803515625C175.677899609375 36.138166796875 141.578627734375 2.0388171875 99.5 1.99Zm0 183.041676953125c-13.2953765625 -10.263969140625 -65.590477734375 -53.970276953125 -65.590477734375 -106.81496015625001 0 -50.491508203125 54.6587703125 -82.048710546875 98.38567773437501 -56.8029953125 20.29380234375 11.716669140625 32.795277734375 33.369812499999995 32.795277734375 56.8029953125 0 52.844683203125 -52.295101171875004 96.550991015625 -65.590477734375 106.81496015625001Z" stroke-width="1"/>
</svg>
