<svg xmlns="http://www.w3.org/2000/svg" viewBox="0 0 24 24" id="Responsive-Design-Hand--Streamline-Ultimate" height="24" width="24"><desc>Responsive Design Hand Streamline Icon: https://streamlinehq.com</desc><g><g><path d="m22 23.5 0.5 -3a0.94 0.94 0 0 0 -0.59 -1l-4.42 -1.94v-4.31a1.25 1.25 0 1 0 -2.49 0v7.94l-1.72 -2.06a1 1 0 0 0 -1.63 0.13 0.94 0.94 0 0 0 0 1l1.8 3.28" fill="none" stroke="#ffffff" stroke-linecap="round" stroke-linejoin="round" stroke-width="1"></path><path d="M4.5 17.5H2A1.5 1.5 0 0 1 0.5 16V2A1.5 1.5 0 0 1 2 0.5h9A1.5 1.5 0 0 1 12.5 2v4.5" fill="none" stroke="#ffffff" stroke-linecap="round" stroke-linejoin="round" stroke-width="1"></path><path d="m0.5 14.5 4 0" fill="none" stroke="#ffffff" stroke-linecap="round" stroke-linejoin="round" stroke-width="1"></path><path d="m9.5 9.5 0 8.5" fill="none" stroke="#ffffff" stroke-linecap="round" stroke-linejoin="round" stroke-width="1"></path><path d="M15.5 0.5h3s1 0 1 1v7s0 1 -1 1h-3s-1 0 -1 -1v-7s0 -1 1 -1" fill="none" stroke="#ffffff" stroke-linecap="round" stroke-linejoin="round" stroke-width="1"></path><path d="m14.5 7.5 5 0" fill="none" stroke="#ffffff" stroke-linecap="round" stroke-linejoin="round" stroke-width="1"></path><path d="m0.5 3.5 12 0" fill="none" stroke="#ffffff" stroke-linecap="round" stroke-linejoin="round" stroke-width="1"></path><path d="m20.5 12 0 4.5" fill="none" stroke="#ffffff" stroke-linecap="round" stroke-linejoin="round" stroke-width="1"></path></g><path d="M21.5 9.5h0.5a1.5 1.5 0 0 1 1.5 1.5v6.5" fill="none" stroke="#ffffff" stroke-linecap="round" stroke-linejoin="round" stroke-width="1"></path><path d="M12.5 9.5H8A1.5 1.5 0 0 0 6.5 11v8A1.5 1.5 0 0 0 8 20.5h1.5" fill="none" stroke="#ffffff" stroke-linecap="round" stroke-linejoin="round" stroke-width="1"></path></g></svg>