<svg xmlns="http://www.w3.org/2000/svg" fill="none" viewBox="0 0 24 24" id="Responsive-Design-Hand--Streamline-Ultimate" height="24" width="24"><desc>Responsive Design Hand Streamline Icon: https://streamlinehq.com</desc><path fill="#ffffff" d="M11.0022 0.550003H2.04135c-0.82483 0 -1.493483 0.668657 -1.493483 1.493477V15.9826c0 0.8248 0.668653 1.4935 1.493483 1.4935h8.96085c0.8248 0 1.4935 -0.6687 1.4935 -1.4935V2.04348c0 -0.82482 -0.6687 -1.493477 -1.4935 -1.493477Z" stroke-width="1"></path><path fill="#66e1ff" d="M12.4957 3.53696H0.547867v9.95654H12.4957V3.53696Z" stroke-width="1"></path><path fill="#c2f3ff" d="M11.5 3.53696H0.547867v9.95654h0.995653L11.5 3.53696Z" stroke-width="1"></path><path fill="#ffffff" d="M21.9544 8.51521H8.01525c-0.82482 0 -1.49348 0.66866 -1.49348 1.49349v8.9609c0 0.8248 0.66866 1.4934 1.49348 1.4934H21.9544c0.8248 0 1.4935 -0.6686 1.4935 -1.4934v-8.9609c0 -0.82483 -0.6687 -1.49349 -1.4935 -1.49349Z" stroke-width="1"></path><path fill="#66e1ff" d="M20.4609 8.51521h-9.9565V20.463h9.9565V8.51521Z" stroke-width="1"></path><path fill="#c2f3ff" d="M20.4609 9.51087v-0.99566h-9.9565V19.4674l9.9565 -9.95653Z" stroke-width="1"></path><path fill="#ffffff" d="M18.4696 0.550003h-2.9869c-0.5499 0 -0.9957 0.445769 -0.9957 0.995657v6.96956c0 0.54988 0.4458 0.99565 0.9957 0.99565h2.9869c0.5499 0 0.9957 -0.44577 0.9957 -0.99565V1.54566c0 -0.549888 -0.4458 -0.995657 -0.9957 -0.995657Z" stroke-width="1"></path><path fill="#66e1ff" d="M19.4653 2.54131H14.487v4.97826h4.9783V2.54131Z" stroke-width="1"></path><path fill="#c2f3ff" d="M14.487 7.51957V2.54131h4.9783L14.487 7.51957Z" stroke-width="1"></path><path fill="#ffdda1" d="m22.95 23.45 0.4979 -3.2647c0.0193 -0.203 -0.0274 -0.4067 -0.1333 -0.5809 -0.1058 -0.1742 -0.2651 -0.3096 -0.4542 -0.3859l-5.3864 -1.9326v-4.2903c0 -0.3961 -0.1574 -0.7759 -0.4375 -1.056s-0.6599 -0.4374 -1.056 -0.4374 -0.776 0.1573 -1.0561 0.4374 -0.4374 0.6599 -0.4374 1.056v8.1554l-1.7125 -2.049c-0.0979 -0.1156 -0.22 -0.2082 -0.3576 -0.2713 -0.1377 -0.0632 -0.2875 -0.0953 -0.4389 -0.0941l-0.9957 0.0169c-0.1682 -0.0002 -0.3335 0.0432 -0.4799 0.126 -0.1463 0.0829 -0.2687 0.2023 -0.3551 0.3466 -0.0864 0.1442 -0.1339 0.3085 -0.1378 0.4766 -0.0039 0.1681 0.0359 0.3344 0.1155 0.4826l1.8042 3.2647" stroke-width="1"></path><path stroke="#191919" stroke-linecap="round" stroke-linejoin="round" d="m22.95 23.45 0.4979 -3.2647c0.0193 -0.203 -0.0274 -0.4067 -0.1333 -0.5809 -0.1058 -0.1742 -0.2651 -0.3096 -0.4542 -0.3859l-5.3864 -1.9326v-4.2903c0 -0.3961 -0.1574 -0.7759 -0.4375 -1.056s-0.6599 -0.4374 -1.056 -0.4374 -0.776 0.1573 -1.0561 0.4374 -0.4374 0.6599 -0.4374 1.056v8.1554l-1.7125 -2.049c-0.0979 -0.1156 -0.22 -0.2082 -0.3576 -0.2713 -0.1377 -0.0632 -0.2875 -0.0953 -0.4389 -0.0941l-0.9957 0.0169c-0.1682 -0.0002 -0.3335 0.0432 -0.4799 0.126 -0.1463 0.0829 -0.2687 0.2023 -0.3551 0.3466 -0.0864 0.1442 -0.1339 0.3085 -0.1378 0.4766 -0.0039 0.1681 0.0359 0.3344 0.1155 0.4826l1.8042 3.2647" stroke-width="1"></path><path stroke="#191919" stroke-linecap="round" stroke-linejoin="round" d="M4.53048 17.4761H2.04135c-0.3961 0 -0.77597 -0.1574 -1.056054 -0.4374 -0.280081 -0.2801 -0.437429 -0.66 -0.437429 -1.0561V2.04348c0 -0.39609 0.157348 -0.77597 0.437429 -1.056047 0.280084 -0.280082 0.659954 -0.43743 1.056054 -0.43743h8.96085c0.3961 0 0.776 0.157348 1.0561 0.43743 0.28 0.280077 0.4374 0.659957 0.4374 1.056047v4.48044" stroke-width="1"></path><path stroke="#191919" stroke-linecap="round" stroke-linejoin="round" d="M0.547867 13.4935H4.53048" stroke-width="1"></path><path stroke="#191919" stroke-linecap="round" stroke-linejoin="round" d="M10.5044 8.51521v8.46309" stroke-width="1"></path><path stroke="#191919" stroke-linecap="round" stroke-linejoin="round" d="M18.4696 0.550003h-2.9869c-0.5499 0 -0.9957 0.445769 -0.9957 0.995657v6.96956c0 0.54988 0.4458 0.99565 0.9957 0.99565h2.9869c0.5499 0 0.9957 -0.44577 0.9957 -0.99565V1.54566c0 -0.549888 -0.4458 -0.995657 -0.9957 -0.995657Z" stroke-width="1"></path><path stroke="#191919" stroke-linecap="round" stroke-linejoin="round" d="M14.487 7.51956h4.9783" stroke-width="1"></path><path stroke="#191919" stroke-linecap="round" stroke-linejoin="round" d="M14.487 2.54131h4.9783" stroke-width="1"></path><path stroke="#191919" stroke-linecap="round" stroke-linejoin="round" d="M0.548874 3.53696H12.4967" stroke-width="1"></path><path stroke="#191919" stroke-linecap="round" stroke-linejoin="round" d="M20.4609 11.0043v5.4761" stroke-width="1"></path><path stroke="#191919" stroke-linecap="round" stroke-linejoin="round" d="M21.4566 8.51521h0.4978c0.3961 0 0.776 0.15735 1.056 0.43743 0.2801 0.28008 0.4375 0.65996 0.4375 1.05606v7.4674" stroke-width="1"></path><path stroke="#191919" stroke-linecap="round" stroke-linejoin="round" d="M8.01525 20.463c-0.39609 0 -0.77596 -0.1573 -1.05605 -0.4374 -0.28008 -0.2801 -0.43743 -0.6599 -0.43743 -1.056v-8.9609c0 -0.3961 0.15735 -0.77598 0.43743 -1.05606 0.28009 -0.28008 0.65996 -0.43743 1.05605 -0.43743h4.48045" stroke-width="1"></path></svg>