<svg xmlns="http://www.w3.org/2000/svg" fill="none" viewBox="0 0 24 24" id="Monitor-Page--Streamline-Ultimate" height="24" width="24"><desc>Monitor Page Streamline Icon: https://streamlinehq.com</desc><path fill="#66e1ff" d="M0.5 17.5v-11c0 -0.26522 0.105357 -0.51957 0.292893 -0.70711C0.98043 5.60536 1.23478 5.5 1.5 5.5h21c0.2652 0 0.5196 0.10536 0.7071 0.29289 0.1875 0.18754 0.2929 0.44189 0.2929 0.70711v11H0.5Z" stroke-width="1"></path><path fill="#c2f3ff" d="M18 5.5H1.5c-0.26522 0 -0.51957 0.10536 -0.707107 0.29289C0.605357 5.98043 0.5 6.23478 0.5 6.5v11H6l12 -12Z" stroke-width="1"></path><path fill="#ffffff" d="M0.5 17.5h23v2c0 0.2652 -0.1054 0.5196 -0.2929 0.7071s-0.4419 0.2929 -0.7071 0.2929h-21c-0.26522 0 -0.51957 -0.1054 -0.707107 -0.2929C0.605357 20.0196 0.5 19.7652 0.5 19.5v-2Z" stroke-width="1"></path><path stroke="#191919" stroke-linecap="round" stroke-linejoin="round" d="M21.5 5.5h1c0.2652 0 0.5196 0.10536 0.7071 0.29289 0.1875 0.18754 0.2929 0.44189 0.2929 0.70711v13c0 0.2652 -0.1054 0.5196 -0.2929 0.7071s-0.4419 0.2929 -0.7071 0.2929h-21c-0.26522 0 -0.51957 -0.1054 -0.707107 -0.2929C0.605357 20.0196 0.5 19.7652 0.5 19.5v-13c0 -0.26522 0.105357 -0.51957 0.292893 -0.70711C0.98043 5.60536 1.23478 5.5 1.5 5.5h1" stroke-width="1"></path><path stroke="#191919" stroke-linecap="round" stroke-linejoin="round" d="M7 23.5h10" stroke-width="1"></path><path fill="#e3e3e3" stroke="#191919" stroke-linecap="round" stroke-linejoin="round" d="M13.5 20.5h-3v3h3v-3Z" stroke-width="1"></path><path fill="#ffffff" d="M19.5 4.5h-15v11h15v-11Z" stroke-width="1"></path><path fill="#e3e3e3" d="M19.5 4.5h-15v-3c0 -0.26522 0.10536 -0.51957 0.29289 -0.707107C4.98043 0.605357 5.23478 0.5 5.5 0.5h13c0.2652 0 0.5196 0.105357 0.7071 0.292893 0.1875 0.187537 0.2929 0.441887 0.2929 0.707107v3Z" stroke-width="1"></path><path stroke="#191919" stroke-linecap="round" stroke-linejoin="round" d="M4.5 15.5v-14c0 -0.26522 0.10536 -0.51957 0.29289 -0.707107C4.98043 0.605357 5.23478 0.5 5.5 0.5h13c0.2652 0 0.5196 0.105357 0.7071 0.292893 0.1875 0.187537 0.2929 0.441887 0.2929 0.707107v14" stroke-width="1"></path><path fill="#66e1ff" d="M10 7.50098H7c-0.27614 0 -0.5 0.22385 -0.5 0.5V11.001c0 0.2761 0.22386 0.5 0.5 0.5h3c0.2761 0 0.5 -0.2239 0.5 -0.5V8.00098c0 -0.27615 -0.2239 -0.5 -0.5 -0.5Z" stroke-width="1"></path><path fill="#c2f3ff" d="M10.354 7.646c-0.0465 -0.0464 -0.1017 -0.08318 -0.1625 -0.10823 -0.0607 -0.02505 -0.1258 -0.03789 -0.1915 -0.03777H7c-0.13261 0 -0.25978 0.05268 -0.35355 0.14645C6.55268 7.74022 6.5 7.86739 6.5 8v3c-0.00012 0.0657 0.01272 0.1308 0.03777 0.1915 0.02505 0.0608 0.06183 0.116 0.10823 0.1625l3.708 -3.708Z" stroke-width="1"></path><path stroke="#191919" stroke-linecap="round" stroke-linejoin="round" d="M10 7.50098H7c-0.27614 0 -0.5 0.22385 -0.5 0.5V11.001c0 0.2761 0.22386 0.5 0.5 0.5h3c0.2761 0 0.5 -0.2239 0.5 -0.5V8.00098c0 -0.27615 -0.2239 -0.5 -0.5 -0.5Z" stroke-width="1"></path><path stroke="#191919" stroke-linecap="round" stroke-linejoin="round" d="M12.601 10.501H17.5" stroke-width="1"></path><path stroke="#191919" stroke-linecap="round" stroke-linejoin="round" d="M12.601 8.00098H17.5" stroke-width="1"></path><path stroke="#191919" stroke-linecap="round" stroke-linejoin="round" d="M6.5 13.5h11" stroke-width="1"></path><path stroke="#191919" stroke-linecap="round" stroke-linejoin="round" d="M0.5 17.5h23" stroke-width="1"></path><path stroke="#191919" stroke-linecap="round" stroke-linejoin="round" d="M4.5 4.5h15" stroke-width="1"></path><path stroke="#191919" d="M6.75 3c-0.13807 0 -0.25 -0.11193 -0.25 -0.25s0.11193 -0.25 0.25 -0.25" stroke-width="1"></path><path stroke="#191919" d="M6.75 3c0.13807 0 0.25 -0.11193 0.25 -0.25s-0.11193 -0.25 -0.25 -0.25" stroke-width="1"></path><path stroke="#191919" d="M8.75 3c-0.13807 0 -0.25 -0.11193 -0.25 -0.25s0.11193 -0.25 0.25 -0.25" stroke-width="1"></path><path stroke="#191919" d="M8.75 3c0.13807 0 0.25 -0.11193 0.25 -0.25s-0.11193 -0.25 -0.25 -0.25" stroke-width="1"></path><g><path stroke="#191919" d="M10.75 3c-0.1381 0 -0.25 -0.11193 -0.25 -0.25s0.1119 -0.25 0.25 -0.25" stroke-width="1"></path><path stroke="#191919" d="M10.75 3c0.1381 0 0.25 -0.11193 0.25 -0.25s-0.1119 -0.25 -0.25 -0.25" stroke-width="1"></path></g></svg>