<svg xmlns="http://www.w3.org/2000/svg" fill="none" viewBox="0 0 24 24" id="Monitor-Page--Streamline-Ultimate" height="24" width="24"><desc>Monitor Page Streamline Icon: https://streamlinehq.com</desc><path stroke="#ffffff" stroke-linecap="round" stroke-linejoin="round" d="M21.5 5.5h0.5c0.397 0.00262 0.777 0.1615 1.0578 0.44224 0.2807 0.28073 0.4396 0.66074 0.4422 1.05776v13c-0.0026 0.397 -0.1615 0.777 -0.4422 1.0578 -0.2808 0.2807 -0.6608 0.4396 -1.0578 0.4422H2c-0.39702 -0.0026 -0.77703 -0.1615 -1.057764 -0.4422C0.661497 20.777 0.502621 20.397 0.5 20V7c0.002621 -0.39702 0.161497 -0.77703 0.442236 -1.05776C1.22297 5.6615 1.60298 5.50262 2 5.5h0.5" stroke-width="1"></path><path stroke="#ffffff" stroke-linecap="round" stroke-linejoin="round" d="M7 23.5h10" stroke-width="1"></path><path stroke="#ffffff" stroke-linecap="round" stroke-linejoin="round" d="M12 21.5v2" stroke-width="1"></path><path stroke="#ffffff" stroke-linecap="round" stroke-linejoin="round" d="M4.5 15.5v-14c0 -0.26522 0.10536 -0.51957 0.29289 -0.707107C4.98043 0.605357 5.23478 0.5 5.5 0.5h13c0.2652 0 0.5196 0.105357 0.7071 0.292893 0.1875 0.187537 0.2929 0.441887 0.2929 0.707107v14" stroke-width="1"></path><path stroke="#ffffff" stroke-linecap="round" stroke-linejoin="round" d="M10 7.5H7c-0.27614 0 -0.5 0.22386 -0.5 0.5v2.5c0 0.2761 0.22386 0.5 0.5 0.5h3c0.2761 0 0.5 -0.2239 0.5 -0.5V8c0 -0.27614 -0.2239 -0.5 -0.5 -0.5Z" stroke-width="1"></path><path stroke="#ffffff" stroke-linecap="round" stroke-linejoin="round" d="M12.6 10.5h4.9" stroke-width="1"></path><path stroke="#ffffff" stroke-linecap="round" stroke-linejoin="round" d="M12.6 7.5h4.9" stroke-width="1"></path><path stroke="#ffffff" stroke-linecap="round" stroke-linejoin="round" d="M6.5 13.5h11" stroke-width="1"></path><path stroke="#ffffff" stroke-linecap="round" stroke-linejoin="round" d="M0.5 18.5h23" stroke-width="1"></path><path stroke="#ffffff" stroke-linecap="round" stroke-linejoin="round" d="M4.5 5h15" stroke-width="1"></path><g><path stroke="#ffffff" d="M6.75 3c-0.13807 0 -0.25 -0.11193 -0.25 -0.25s0.11193 -0.25 0.25 -0.25" stroke-width="1"></path><path stroke="#ffffff" d="M6.75 3c0.13807 0 0.25 -0.11193 0.25 -0.25s-0.11193 -0.25 -0.25 -0.25" stroke-width="1"></path></g><g><path stroke="#ffffff" d="M9.25 3C9.11193 3 9 2.88807 9 2.75s0.11193 -0.25 0.25 -0.25" stroke-width="1"></path><path stroke="#ffffff" d="M9.25 3c0.13807 0 0.25 -0.11193 0.25 -0.25s-0.11193 -0.25 -0.25 -0.25" stroke-width="1"></path></g><g><path stroke="#ffffff" d="M11.75 3c-0.1381 0 -0.25 -0.11193 -0.25 -0.25s0.1119 -0.25 0.25 -0.25" stroke-width="1"></path><path stroke="#ffffff" d="M11.75 3c0.1381 0 0.25 -0.11193 0.25 -0.25s-0.1119 -0.25 -0.25 -0.25" stroke-width="1"></path></g></svg>