<svg xmlns="http://www.w3.org/2000/svg" fill="none" viewBox="0 0 24 24" id="Desktop-Computer--Streamline-Ultimate" height="24" width="24"><desc>Desktop Computer Streamline Icon: https://streamlinehq.com</desc><path fill="#66e1ff" d="M23.5 11.5v-10c0 -0.26522 -0.1054 -0.51957 -0.2929 -0.707107C23.0196 0.605357 22.7652 0.5 22.5 0.5h-21C1.23478 0.5 0.98043 0.605357 0.792893 0.792893 0.605357 0.98043 0.5 1.23478 0.5 1.5v10h23Z" stroke-width="1"></path><path fill="#c2f3ff" d="M18 0.5H1.5C1.23478 0.5 0.98043 0.605357 0.792893 0.792893 0.605357 0.98043 0.5 1.23478 0.5 1.5v10H7l11 -11Z" stroke-width="1"></path><path fill="#ffffff" d="M0.5 11.5v2c0 0.2652 0.105357 0.5196 0.292893 0.7071 0.187537 0.1875 0.441887 0.2929 0.707107 0.2929h21c0.2652 0 0.5196 -0.1054 0.7071 -0.2929s0.2929 -0.4419 0.2929 -0.7071v-2H0.5Z" stroke-width="1"></path><path stroke="#191919" stroke-linecap="round" stroke-linejoin="round" d="M22.5 0.5h-21c-0.552285 0 -1 0.447715 -1 1v12c0 0.5523 0.447715 1 1 1h21c0.5523 0 1 -0.4477 1 -1v-12c0 -0.552285 -0.4477 -1 -1 -1Z" stroke-width="1"></path><path fill="#e3e3e3" stroke="#191919" stroke-linecap="round" stroke-linejoin="round" d="M21.847 22.879c0.0184 0.0737 0.0197 0.1506 0.0039 0.2249 -0.0157 0.0743 -0.0482 0.144 -0.095 0.2039 -0.0467 0.0598 -0.1065 0.1082 -0.1748 0.1415 -0.0682 0.0334 -0.1432 0.0507 -0.2191 0.0507H2.64299c-0.07595 0 -0.1509 -0.0173 -0.21915 -0.0507 -0.06826 -0.0333 -0.12802 -0.0817 -0.17477 -0.1415 -0.04675 -0.0599 -0.07925 -0.1296 -0.09503 -0.2039 -0.01578 -0.0743 -0.01443 -0.1512 0.00395 -0.2249l1.25 -5c0.02699 -0.1082 0.08939 -0.2043 0.17727 -0.273 0.08788 -0.0686 0.1962 -0.106 0.30773 -0.106H20.112c0.1115 0 0.2198 0.0374 0.3077 0.106 0.0879 0.0687 0.1503 0.1648 0.1773 0.273l1.25 5Z" stroke-width="1"></path><path stroke="#191919" stroke-linecap="round" stroke-linejoin="round" d="M0.5 11.5h23" stroke-width="1"></path><path stroke="#191919" stroke-linecap="round" stroke-linejoin="round" d="M5.5 19.5h1" stroke-width="1"></path><path stroke="#191919" stroke-linecap="round" stroke-linejoin="round" d="M4.5 21.5h1" stroke-width="1"></path><path stroke="#191919" stroke-linecap="round" stroke-linejoin="round" d="M8.5 19.5h1" stroke-width="1"></path><path stroke="#191919" stroke-linecap="round" stroke-linejoin="round" d="M11.5 19.5h1" stroke-width="1"></path><path stroke="#191919" stroke-linecap="round" stroke-linejoin="round" d="M14.5 19.5h1" stroke-width="1"></path><path stroke="#191919" stroke-linecap="round" stroke-linejoin="round" d="M17.5 19.5h1" stroke-width="1"></path><path stroke="#191919" stroke-linecap="round" stroke-linejoin="round" d="M7.5 21.5h9" stroke-width="1"></path><path stroke="#191919" stroke-linecap="round" stroke-linejoin="round" d="M18.5 21.5h1" stroke-width="1"></path></svg>