<svg xmlns="http://www.w3.org/2000/svg" viewBox="0 0 24 24" id="Desktop-Computer--Streamline-Ultimate" height="24" width="24"><desc>Desktop Computer Streamline Icon: https://streamlinehq.com</desc><defs></defs><title>desktop-computer</title><path d="M1.5 0.5h21s1 0 1 1v12s0 1 -1 1h-21s-1 0 -1 -1v-12s0 -1 1 -1" fill="none" stroke="#ffffff" stroke-linecap="round" stroke-linejoin="round" stroke-width="1"></path><path d="M21.847 22.879a0.5 0.5 0 0 1 -0.485 0.621H2.643a0.5 0.5 0 0 1 -0.485 -0.621l1.25 -5a0.5 0.5 0 0 1 0.485 -0.379h16.219a0.5 0.5 0 0 1 0.485 0.379Z" fill="none" stroke="#ffffff" stroke-linecap="round" stroke-linejoin="round" stroke-width="1"></path><path d="m0.5 11.5 23 0" fill="none" stroke="#ffffff" stroke-linecap="round" stroke-linejoin="round" stroke-width="1"></path><path d="m5.5 19.5 1 0" fill="none" stroke="#ffffff" stroke-linecap="round" stroke-linejoin="round" stroke-width="1"></path><path d="m4.5 21.5 1 0" fill="none" stroke="#ffffff" stroke-linecap="round" stroke-linejoin="round" stroke-width="1"></path><path d="m8.5 19.5 1 0" fill="none" stroke="#ffffff" stroke-linecap="round" stroke-linejoin="round" stroke-width="1"></path><path d="m11.5 19.5 1 0" fill="none" stroke="#ffffff" stroke-linecap="round" stroke-linejoin="round" stroke-width="1"></path><path d="m14.5 19.5 1 0" fill="none" stroke="#ffffff" stroke-linecap="round" stroke-linejoin="round" stroke-width="1"></path><path d="m17.5 19.5 1 0" fill="none" stroke="#ffffff" stroke-linecap="round" stroke-linejoin="round" stroke-width="1"></path><path d="m7.5 21.5 9 0" fill="none" stroke="#ffffff" stroke-linecap="round" stroke-linejoin="round" stroke-width="1"></path><path d="m18.5 21.5 1 0" fill="none" stroke="#ffffff" stroke-linecap="round" stroke-linejoin="round" stroke-width="1"></path></svg>