<svg width="100" height="100" viewBox="0 0 100 100" fill="none" xmlns="http://www.w3.org/2000/svg">
<rect width="100" height="100" rx="20" fill="#2B7FFF"/>
<path d="M17 34.2855C17 31.9807 18.2069 29.8445 20.1801 28.657L46.2979 12.9387C48.4092 11.6681 51.0536 11.6888 53.1448 12.9923L56.1016 14.8352V38.0453L43.0458 45.9459V30.5709L30.1213 38.0453V76.5647L20.1789 70.5782C18.2064 69.3905 17 67.2548 17 64.9505L17 34.2855Z" fill="white"/>
<path d="M82 64.72C82 67.0246 80.7931 69.1604 78.8199 70.3478L52.6878 86.0726C50.584 87.3385 47.9501 87.3228 45.8616 86.0319L42.8984 84.2004L42.8984 60.9607L55.9542 53.0612L55.9542 68.4342L68.8787 60.9607L68.8787 22.4464L78.8211 28.4322C80.7936 29.6197 82 31.7551 82 34.0592L82 64.72Z" fill="white"/>
</svg>
